<?xml version="1.0" encoding="UTF-8"?>
<svg width="200" height="200" viewBox="0 0 200 200" xmlns="http://www.w3.org/2000/svg">
  <!-- Main cloud shape -->
  <defs>
    <linearGradient id="cloudGradient" x1="0%" y1="0%" x2="100%" y2="100%">
      <stop offset="0%" stop-color="#4A90E2" />
      <stop offset="100%" stop-color="#5A6BF5" />
    </linearGradient>
  </defs>
  
  <!-- Main cloud -->
  <path d="M165,125 C177.15,125 187,115.15 187,103 C187,90.85 177.15,81 165,81 C164.59,81 164.19,81.02 163.79,81.05 C161.44,64.75 147.35,52 130,52 C114.68,52 101.93,62.05 97.54,76.27 C95.94,75.44 94.04,75 92,75 C84.82,75 79,80.82 79,88 C79,88.37 79.03,88.74 79.08,89.1 C69.29,91.28 62,99.96 62,110 C62,122.15 71.85,132 84,132 L165,125 Z" 
        fill="url(#cloudGradient)" />
        
  <!-- Sun peeking out -->
  <circle cx="55" cy="75" r="25" fill="#FFD700" />
  
  <!-- Small raindrops -->
  <path d="M100,140 L105,155 C105.5,156.67 104,158 102.5,157 L100,155 L97.5,157 C96,158 94.5,156.67 95,155 L100,140 Z" fill="#4A90E2" />
  <path d="M125,145 L130,160 C130.5,161.67 129,163 127.5,162 L125,160 L122.5,162 C121,163 119.5,161.67 120,160 L125,145 Z" fill="#4A90E2" />
  <path d="M150,138 L155,153 C155.5,154.67 154,156 152.5,155 L150,153 L147.5,155 C146,156 144.5,154.67 145,153 L150,138 Z" fill="#4A90E2" />
</svg>
